<mxfile host="app.diagrams.net" modified="2023-07-12T19:55:34.204Z" agent="Mozilla/5.0 (Macintosh; Intel Mac OS X 10.15; rv:109.0) Gecko/20100101 Firefox/115.0" etag="EO5RwyDrzyvgNqRWeclL" version="21.6.2" type="device">
  <diagram name="Page-1" id="P9ckJnxVDjWmNVQfJBL8">
    <mxGraphModel dx="2050" dy="1134" grid="1" gridSize="10" guides="1" tooltips="1" connect="1" arrows="1" fold="1" page="1" pageScale="1" pageWidth="827" pageHeight="1169" math="0" shadow="0">
      <root>
        <mxCell id="0" />
        <mxCell id="1" parent="0" />
        <mxCell id="WmDd0GLQscmvsznRdDZp-1" value="" style="rounded=0;whiteSpace=wrap;html=1;fillColor=#fff2cc;strokeColor=#d6b656;fillStyle=solid;" parent="1" vertex="1">
          <mxGeometry x="40" y="30" width="490" height="600" as="geometry" />
        </mxCell>
        <mxCell id="WmDd0GLQscmvsznRdDZp-4" style="edgeStyle=orthogonalEdgeStyle;rounded=0;orthogonalLoop=1;jettySize=auto;html=1;entryX=0;entryY=0.5;entryDx=0;entryDy=0;endArrow=none;endFill=0;" parent="1" source="WmDd0GLQscmvsznRdDZp-2" target="WmDd0GLQscmvsznRdDZp-3" edge="1">
          <mxGeometry relative="1" as="geometry" />
        </mxCell>
        <mxCell id="WmDd0GLQscmvsznRdDZp-5" value="&lt;font style=&quot;font-size: 14px;&quot;&gt;VDSL&lt;/font&gt;" style="edgeLabel;html=1;align=center;verticalAlign=middle;resizable=0;points=[];labelBackgroundColor=none;fontColor=#000000;fontSize=14;" parent="WmDd0GLQscmvsznRdDZp-4" vertex="1" connectable="0">
          <mxGeometry x="-0.04" y="-1" relative="1" as="geometry">
            <mxPoint y="-11" as="offset" />
          </mxGeometry>
        </mxCell>
        <mxCell id="WmDd0GLQscmvsznRdDZp-2" value="&lt;font style=&quot;font-size: 15px;&quot;&gt;ISP&lt;/font&gt;" style="ellipse;shape=cloud;whiteSpace=wrap;html=1;fillColor=#FFFFFF;fontColor=#000000;" parent="1" vertex="1">
          <mxGeometry x="70" y="80" width="60" height="40" as="geometry" />
        </mxCell>
        <mxCell id="WmDd0GLQscmvsznRdDZp-7" style="edgeStyle=orthogonalEdgeStyle;rounded=0;orthogonalLoop=1;jettySize=auto;html=1;exitX=1;exitY=0.5;exitDx=0;exitDy=0;entryX=0;entryY=0.5;entryDx=0;entryDy=0;endArrow=none;endFill=0;" parent="1" source="WmDd0GLQscmvsznRdDZp-3" target="WmDd0GLQscmvsznRdDZp-6" edge="1">
          <mxGeometry relative="1" as="geometry" />
        </mxCell>
        <mxCell id="WmDd0GLQscmvsznRdDZp-3" value="&lt;div&gt;Asus AC-51 Modem&lt;/div&gt;" style="whiteSpace=wrap;html=1;aspect=fixed;fillColor=#FFFFFF;fontColor=#000000;shadow=1;" parent="1" vertex="1">
          <mxGeometry x="230" y="60" width="80" height="80" as="geometry" />
        </mxCell>
        <mxCell id="WmDd0GLQscmvsznRdDZp-9" style="edgeStyle=orthogonalEdgeStyle;rounded=0;orthogonalLoop=1;jettySize=auto;html=1;entryX=0.5;entryY=0;entryDx=0;entryDy=0;endArrow=none;endFill=0;dashed=1;" parent="1" source="WmDd0GLQscmvsznRdDZp-6" target="WmDd0GLQscmvsznRdDZp-8" edge="1">
          <mxGeometry relative="1" as="geometry" />
        </mxCell>
        <mxCell id="WmDd0GLQscmvsznRdDZp-6" value="TP-Link Deco M4" style="rounded=0;whiteSpace=wrap;html=1;shadow=1;" parent="1" vertex="1">
          <mxGeometry x="380" y="70" width="120" height="60" as="geometry" />
        </mxCell>
        <mxCell id="WmDd0GLQscmvsznRdDZp-8" value="TP-Link Deco M4" style="rounded=0;whiteSpace=wrap;html=1;shadow=1;" parent="1" vertex="1">
          <mxGeometry x="380" y="180" width="120" height="60" as="geometry" />
        </mxCell>
        <mxCell id="WmDd0GLQscmvsznRdDZp-11" style="edgeStyle=orthogonalEdgeStyle;rounded=0;orthogonalLoop=1;jettySize=auto;html=1;endArrow=none;endFill=0;" parent="1" source="WmDd0GLQscmvsznRdDZp-12" target="WmDd0GLQscmvsznRdDZp-8" edge="1">
          <mxGeometry relative="1" as="geometry">
            <mxPoint x="260" y="210" as="sourcePoint" />
          </mxGeometry>
        </mxCell>
        <mxCell id="WmDd0GLQscmvsznRdDZp-16" value="Proxmox Cluster" style="rounded=0;whiteSpace=wrap;html=1;fillStyle=solid;dashed=1;dashPattern=8 8;shadow=1;align=center;verticalAlign=bottom;labelPosition=center;verticalLabelPosition=top;" parent="1" vertex="1">
          <mxGeometry x="70" y="290" width="430" height="320" as="geometry" />
        </mxCell>
        <mxCell id="WmDd0GLQscmvsznRdDZp-12" value="" style="image;points=[];aspect=fixed;html=1;align=center;shadow=0;dashed=0;image=img/lib/allied_telesis/computer_and_terminals/Personal_Computer_with_Server.svg;" parent="1" vertex="1">
          <mxGeometry x="102.9" y="178.8" width="62.400000000000006" height="62.400000000000006" as="geometry" />
        </mxCell>
        <mxCell id="WmDd0GLQscmvsznRdDZp-19" value="Direct Storage w/ USB" style="edgeStyle=orthogonalEdgeStyle;rounded=0;orthogonalLoop=1;jettySize=auto;html=1;" parent="1" source="WmDd0GLQscmvsznRdDZp-13" target="WmDd0GLQscmvsznRdDZp-18" edge="1">
          <mxGeometry relative="1" as="geometry" />
        </mxCell>
        <mxCell id="WmDd0GLQscmvsznRdDZp-13" value="" style="image;points=[];aspect=fixed;html=1;align=center;shadow=0;dashed=0;image=img/lib/allied_telesis/storage/Datacenter_Server_Half_Rack_ToR.svg;" parent="1" vertex="1">
          <mxGeometry x="107.16" y="320" width="53.87" height="70" as="geometry" />
        </mxCell>
        <mxCell id="WmDd0GLQscmvsznRdDZp-18" value="" style="sketch=0;pointerEvents=1;shadow=0;dashed=0;html=1;strokeColor=none;fillColor=#505050;labelPosition=center;verticalLabelPosition=bottom;verticalAlign=top;outlineConnect=0;align=center;shape=mxgraph.office.devices.hard_disk;" parent="1" vertex="1">
          <mxGeometry x="114.1" y="490" width="40" height="54" as="geometry" />
        </mxCell>
        <mxCell id="WmDd0GLQscmvsznRdDZp-20" value="Portainer" style="rounded=1;whiteSpace=wrap;html=1;fillColor=#dae8fc;strokeColor=#6c8ebf;" parent="1" vertex="1">
          <mxGeometry x="360" y="310" width="120" height="30" as="geometry" />
        </mxCell>
        <mxCell id="WmDd0GLQscmvsznRdDZp-21" value="AdGuard" style="rounded=1;whiteSpace=wrap;html=1;fillColor=#dae8fc;strokeColor=#6c8ebf;" parent="1" vertex="1">
          <mxGeometry x="360" y="351" width="120" height="30" as="geometry" />
        </mxCell>
        <mxCell id="WmDd0GLQscmvsznRdDZp-22" value="Dev Server" style="rounded=1;whiteSpace=wrap;html=1;fillColor=#dae8fc;strokeColor=#6c8ebf;" parent="1" vertex="1">
          <mxGeometry x="360" y="392" width="120" height="30" as="geometry" />
        </mxCell>
        <mxCell id="WmDd0GLQscmvsznRdDZp-23" value="Nginx Reverse Proxy" style="rounded=1;whiteSpace=wrap;html=1;fillColor=#dae8fc;strokeColor=#6c8ebf;" parent="1" vertex="1">
          <mxGeometry x="360" y="432" width="120" height="30" as="geometry" />
        </mxCell>
        <mxCell id="WmDd0GLQscmvsznRdDZp-24" value="*arr" style="rounded=1;whiteSpace=wrap;html=1;fillColor=#dae8fc;strokeColor=#6c8ebf;" parent="1" vertex="1">
          <mxGeometry x="360" y="473" width="120" height="30" as="geometry" />
        </mxCell>
        <mxCell id="WmDd0GLQscmvsznRdDZp-25" value="Jellyfin" style="rounded=1;whiteSpace=wrap;html=1;fillColor=#dae8fc;strokeColor=#6c8ebf;" parent="1" vertex="1">
          <mxGeometry x="360" y="514" width="120" height="30" as="geometry" />
        </mxCell>
        <mxCell id="WmDd0GLQscmvsznRdDZp-27" style="edgeStyle=orthogonalEdgeStyle;rounded=0;orthogonalLoop=1;jettySize=auto;html=1;exitX=0.5;exitY=1;exitDx=0;exitDy=0;endArrow=none;endFill=0;" parent="1" source="WmDd0GLQscmvsznRdDZp-8" target="WmDd0GLQscmvsznRdDZp-13" edge="1">
          <mxGeometry relative="1" as="geometry">
            <Array as="points">
              <mxPoint x="440" y="260" />
              <mxPoint x="134" y="260" />
            </Array>
          </mxGeometry>
        </mxCell>
        <mxCell id="Z-OGnhr5-tH0jVizhDl_-1" value="FreshRSS" style="rounded=1;whiteSpace=wrap;html=1;fillColor=#dae8fc;strokeColor=#6c8ebf;" vertex="1" parent="1">
          <mxGeometry x="360" y="554.5" width="120" height="30" as="geometry" />
        </mxCell>
      </root>
    </mxGraphModel>
  </diagram>
</mxfile>
